<svg width="24" height="24" viewBox="0 0 24 24" xmlns="http://www.w3.org/2000/svg"><title>icons/24x24/reviews/youtube</title><g fill="none" fill-rule="evenodd"><path d="M12.453 4C2.18 4 2 4.851 2 12c0 6.149.18 7 10.453 7 10.274 0 10.454-.851 10.454-7 0-7.149-.18-8-10.454-8z" fill="#FFF"/><path d="M12.453 4C2.18 4 2 4.851 2 12c0 6.149.18 7 10.453 7 10.274 0 10.454-.851 10.454-7 0-7.149-.18-8-10.454-8zm3.136 8l-4.181 2c-.74.116-1.045-.089-1.045-1v-3c0-.91.306-1.116 1.045-1l4.181 2c.094.35.094.65 0 1z" fill="#D0021B"/></g></svg>