<?xml version="1.0" standalone="no"?>
<!DOCTYPE svg PUBLIC "-//W3C//DTD SVG 20010904//EN"
 "http://www.w3.org/TR/2001/REC-SVG-20010904/DTD/svg10.dtd">
<svg version="1.0" xmlns="http://www.w3.org/2000/svg"
 width="16.000000pt" height="16.000000pt" viewBox="0 0 16.000000 16.000000"
 preserveAspectRatio="xMidYMid meet">
<metadata>
Created by potrace 1.11, written by Peter Selinger 2001-2013
</metadata>
<g transform="translate(0.000000,16.000000) scale(0.001361,-0.001361)"
fill="#000000" stroke="none">
<path d="M3580 5881 l0 -3061 1143 0 c1163 1 1460 7 1685 35 870 111 1483 537
1691 1173 55 166 73 287 78 508 9 352 -38 608 -153 836 -158 314 -445 524
-861 629 -82 21 -93 26 -93 46 0 22 8 27 70 38 114 21 279 94 389 173 179 127
348 365 419 592 103 324 103 756 2 1060 -190 569 -709 880 -1645 984 -308 35
-433 38 -1572 43 l-1153 5 0 -3061z m2360 1980 c435 -58 645 -193 717 -463 25
-93 22 -298 -5 -401 -74 -273 -274 -412 -677 -467 -44 -6 -304 -14 -582 -17
l-503 -6 0 688 0 687 483 -5 c265 -3 520 -10 567 -16z m146 -2399 c344 -61
555 -189 660 -401 102 -207 95 -520 -16 -747 -118 -241 -368 -376 -765 -414
-60 -5 -327 -10 -592 -10 l-483 0 0 801 0 801 538 -5 c492 -4 547 -6 658 -25z"/>
</g>
</svg>
