<svg width="24" height="24" viewBox="0 0 24 24" xmlns="http://www.w3.org/2000/svg"><title>icons/24x24/tooltip-help</title><g fill="#CCC" fill-rule="evenodd"><path d="M12 23c6.075 0 11-4.925 11-11S18.075 1 12 1 1 5.925 1 12s4.925 11 11 11zm0-2a9 9 0 1 1 0-18 9 9 0 0 1 0 18z"/><path d="M10.775 12.771v-.513c0-.39.08-.72.241-.988.16-.268.445-.53.855-.785.325-.203.558-.386.7-.549a.828.828 0 0 0 .214-.56.45.45 0 0 0-.228-.398c-.153-.097-.351-.146-.596-.146-.606 0-1.314.213-2.124.639L9 7.847C9.999 7.282 11.042 7 12.13 7c.894 0 1.596.195 2.106.585.51.39.764.921.764 1.593 0 .482-.113.899-.34 1.25-.227.353-.589.686-1.086 1-.422.27-.685.469-.792.594a.665.665 0 0 0-.16.445v.304h-1.847zm-.258 2.09c0-.367.107-.65.322-.848.214-.2.53-.299.947-.299.402 0 .71.1.924.302.215.2.322.482.322.844s-.111.643-.334.842c-.223.199-.526.298-.912.298-.397 0-.708-.098-.932-.295-.225-.197-.337-.479-.337-.845z"/></g></svg>