<?xml version="1.0" encoding="UTF-8"?>
<svg width="32px" height="32px" viewBox="0 0 32 32" version="1.1" xmlns="http://www.w3.org/2000/svg" xmlns:xlink="http://www.w3.org/1999/xlink">
    <!-- Generator: Sketch 41 (35326) - http://www.bohemiancoding.com/sketch -->
    <title>consilium</title>
    <desc>Created with Sketch.</desc>
    <defs></defs>
    <g id="Page-1" stroke="none" stroke-width="1" fill="none" fill-rule="evenodd">
        <g id="consilium">
            <g id="Group-2" transform="translate(0.000000, 5.000000)">
                <path d="M18.5,13 C17.1192881,13 16,14.1192881 16,15.5 C16,16.8807119 17.1192881,18 18.5,18 C19.8807119,18 21,16.8807119 21,15.5 C21.0065602,14.8349694 20.7452753,14.1952658 20.2750047,13.7249953 C19.8047342,13.2547247 19.1650306,12.9934398 18.5,13 L18.5,13 Z" id="Shape"></path>
                <path d="M4.5,13 C3.11928813,13 2,14.1192881 2,15.5 C2,16.8807119 3.11928813,18 4.5,18 C5.88071187,18 7,16.8807119 7,15.5 C7.00656022,14.8349694 6.74527526,14.1952658 6.2750047,13.7249953 C5.80473415,13.2547247 5.16503064,12.9934398 4.5,13 L4.5,13 Z" id="Shape"></path>
                <polygon id="Shape" points="13 1 1 1 1 6 3 6 3 7.56 5.2 6.08 5.33 6 13 6"></polygon>
                <polygon id="Shape" points="22.1 3 14.1 3 14.1 7 11.1 7 11.1 9 17.81 9 20.1 11.27 20.1 9 22.1 9"></polygon>
                <path d="M23.1,10 L23.1,2 L14.1,2 L14.1,0 L0.1,0 L0.1,7 L2.1,7 L2.1,9.45 L5.76,7 L10.1,7 L10.1,10 L17.37,10 L19.29,11.92 L18.24,12.03 C16.4652094,12.2237936 15.11606,13.7147326 15.1,15.5 C15.1053909,16.4405193 15.4913888,17.3387762 16.17,17.99 L16.61,18.41 L16.1,18.76 C14.9990679,19.4979837 14.2785737,20.6829589 14.13,22 L15.14,22 C15.3865219,20.2785823 16.8610198,19.0002019 18.6,19.0002019 C20.3389802,19.0002019 21.8134781,20.2785823 22.06,22 L23.07,22 C22.9173037,20.6843716 22.1977807,19.5009937 21.1,18.76 L20.59,18.41 L21.03,17.99 C21.708592,17.3387629 22.0945863,16.4405145 22.1,15.5 C22.0940354,14.6611978 21.7809749,13.8536441 21.22,13.23 L21.1,13.09 L21.1,10 L23.1,10 L23.1,10 Z M5.33,6 L5.2,6.08 L3,7.56 L3,6 L1,6 L1,1 L13,1 L13,6 L5.33,6 Z M18.5,18 C17.1192881,18 16,16.8807119 16,15.5 C16,14.1192881 17.1192881,13 18.5,13 C19.8807119,13 21,14.1192881 21,15.5 C21.0065602,16.1650306 20.7452753,16.8047342 20.2750047,17.2750047 C19.8047342,17.7452753 19.1650306,18.0065602 18.5,18 L18.5,18 Z M20.1,9 L20.1,11.27 L17.81,9 L11.1,9 L11.1,7 L14.1,7 L14.1,3 L22.1,3 L22.1,9 L20.1,9 Z" id="Shape" fill="#4A4A4A"></path>
                <path d="M7,18.76 L6.49,18.41 L6.93,17.99 C7.9570641,16.9992032 8.27973141,15.4840671 7.74548291,14.1607691 C7.21123442,12.8374712 5.92707355,11.9710518 4.5,11.9710518 C3.07292645,11.9710518 1.78876558,12.8374712 1.25451709,14.1607691 C0.720268592,15.4840671 1.0429359,16.9992032 2.07,17.99 L2.51,18.41 L2,18.76 C0.899047779,19.4979644 0.178547309,20.6829499 0.03,22 L1.04,22 C1.28652187,20.2785823 2.76101984,19.0002019 4.5,19.0002019 C6.23898016,19.0002019 7.71347813,20.2785823 7.96,22 L8.97,22 C8.82145269,20.6829499 8.10095222,19.4979644 7,18.76 Z M4.5,18 C3.11928813,18 2,16.8807119 2,15.5 C2,14.1192881 3.11928813,13 4.5,13 C5.88071187,13 7,14.1192881 7,15.5 C7.00656022,16.1650306 6.74527526,16.8047342 6.2750047,17.2750047 C5.80473415,17.7452753 5.16503064,18.0065602 4.5,18 L4.5,18 Z" id="Shape" fill="#4A4A4A"></path>
            </g>
        </g>
    </g>
</svg>