<svg xmlns="http://www.w3.org/2000/svg" width="50" height="36" viewBox="0 0 50 36"><title>“ copy 5</title><path d="M29.49 18.74c.51-2.19 1.18-4.39 2.03-6.58.84-2.2 2-4.16 3.48-5.89 1.48-1.73 3.37-3.17 5.7-4.31C43.02.82 45.91.17 49.37 0l-1.52 7.34c-3.38.43-5.76 1.63-7.15 3.61-1.4 1.99-2.43 4.54-3.11 7.66h9.5l-3.55 17.1h-17.6zM1 35.71h17.6l3.55-17.1h-9.5c.67-3.12 1.71-5.67 3.1-7.66 1.39-1.98 3.78-3.18 7.16-3.61L24.43 0c-3.47.17-6.36.82-8.68 1.96-2.32 1.14-4.22 2.58-5.7 4.31a20.329 20.329 0 0 0-3.48 5.89c-.84 2.19-1.52 4.39-2.02 6.58z" fill="#f2f2f2"/></svg>