<svg xmlns="http://www.w3.org/2000/svg" width="10" height="16" viewBox="0 0 10 16"><title>$</title><path d="M3.84 13.82c-1.13-.13-2.03-.52-2.69-1.16C.49 12.02.1 11.22 0 10.25l1.88-.27c.24 1.17.89 1.88 1.96 2.12V8.08c-.43-.17-.85-.34-1.27-.53-.41-.18-.78-.41-1.1-.69-.31-.28-.57-.6-.76-.97-.19-.37-.29-.81-.29-1.32 0-.78.3-1.44.9-1.99.6-.55 1.44-.89 2.52-1.02V0h1.81v1.6a4.404 4.404 0 0 1 2.47 1.22c.29.31.52.65.68 1.04.17.38.27.78.29 1.19l-1.89.2c-.15-1-.67-1.64-1.55-1.9v3.43c.45.16.88.35 1.32.55.43.2.82.45 1.16.74.33.29.61.64.83 1.04.21.4.32.88.32 1.45 0 .4-.09.78-.25 1.14-.17.36-.41.69-.71.99-.31.29-.69.54-1.14.73-.44.19-.95.33-1.53.4v1.56H3.84zm2.97-4.33c-.3-.27-.69-.51-1.16-.72v3.33c.5-.09.89-.26 1.18-.51.28-.25.43-.59.43-1.03 0-.44-.15-.8-.45-1.07zM2.82 5.45c.26.24.6.45 1.02.64V3.28c-.44.08-.79.22-1.04.43-.24.2-.37.48-.37.84s.13.66.39.9z" fill="#77b200"/></svg>