<?xml version="1.0" encoding="UTF-8"?>
<svg width="24px" height="24px" viewBox="0 0 24 24" version="1.1" xmlns="http://www.w3.org/2000/svg" xmlns:xlink="http://www.w3.org/1999/xlink">
    <!-- Generator: Sketch 41 (35326) - http://www.bohemiancoding.com/sketch -->
    <title>email</title>
    <desc>Created with Sketch.</desc>
    <defs></defs>
    <g id="Page-1" stroke="none" stroke-width="1" fill="none" fill-rule="evenodd">
        <g id="email" fill="#4A4A4A">
            <path d="M14.689602,15.4976799 C15.0406751,15.8392645 15.4975063,16.0099835 16.0513885,16.0099835 C17.0019556,16.0099835 17.7605939,15.5835391 18.3127283,14.7416104 C18.85523,13.9143702 19.1246659,12.824718 19.1246659,11.4750674 C19.1246659,10.1865956 18.859393,9.04992336 18.3279377,8.06717653 C17.7948936,7.0814915 17.034215,6.32230449 16.0484801,5.7922114 C15.0658946,5.26381192 13.9380245,5 12.6669989,5 C11.1915204,5 9.86524687,5.33415587 8.6907371,6.00276848 C7.5145754,6.67232149 6.60408295,7.61395456 5.96146989,8.82514692 C5.32034567,10.0335331 5,11.3931569 5,12.9019052 C5,15.0093452 5.57869434,16.6638175 6.73901428,17.8568644 C7.90022262,19.0508248 9.51690622,19.6466797 11.5794702,19.6466797 C12.8222987,19.6466797 14.041559,19.4110738 15.2363622,18.9402154 L15.3313655,18.8006613 L15.3313655,17.7213949 L15.1277949,17.7992307 C14.3467011,18.0978842 13.683571,18.2983987 13.1394791,18.40095 C12.5946229,18.5036455 12.0572588,18.5549587 11.5272688,18.5549587 C9.7853143,18.5549587 8.45025149,18.0606475 7.5120245,17.0746664 C6.5722813,16.087092 6.1004212,14.681401 6.1004212,12.8497038 C6.1004212,11.5041072 6.36912016,10.3155763 6.90571736,9.28212983 C7.44052557,8.25212885 8.2030473,7.45712933 9.19563514,6.8943801 C10.1901846,6.33051871 11.340659,6.04821981 12.6495985,6.04821981 C13.7160565,6.04821981 14.6617843,6.2701619 15.4889798,6.71340317 C16.3128416,7.15485815 16.9455615,7.78477219 17.3898021,8.60577382 C17.8356359,9.42971987 18.0590456,10.3912299 18.0590456,11.4924679 C18.0590456,12.5531531 17.8744612,13.4084413 17.5084292,14.0594752 C17.1532738,14.6911639 16.7115569,14.9965646 16.1731917,14.9965646 C15.750325,14.9965646 15.4616506,14.8659145 15.2887726,14.6065974 C15.1047602,14.3305789 15.009457,13.9044372 15.009457,13.3282164 L15.009457,13.0672095 L15.2006937,9.03740679 L15.0909079,8.88574706 C14.2197721,8.64441892 13.3769394,8.52359325 12.5625962,8.52359325 C11.3969819,8.52359325 10.4450461,8.91253998 9.71695646,9.68896751 C8.99090679,10.4632196 8.62799602,11.458589 8.62799602,12.6669989 C8.62799602,13.7090008 8.87306644,14.5274151 9.36782376,15.1168482 C9.86756051,15.7122135 10.5741855,16.0099835 11.4750674,16.0099835 C12.1286866,16.0099835 12.7043228,15.8561759 13.1987695,15.5479098 C13.5899853,15.3040036 13.9084325,14.966558 14.1536214,14.5375828 C14.2502789,14.922979 14.4288031,15.2439296 14.689602,15.4976799 Z M13.8918615,12.1280499 C13.7911826,14.0633112 13.0548295,14.9965646 11.6664725,14.9965646 C11.0198704,14.9965646 10.5599382,14.8062478 10.2718331,14.4290919 C9.97567213,14.0413903 9.82411974,13.4489583 9.82411974,12.6495985 C9.82411974,11.6857711 10.0681945,10.9244244 10.5535501,10.3590954 C11.0346292,9.79874761 11.6800459,9.51961168 12.5016946,9.51961168 C13.0959267,9.51961168 13.6036834,9.5840092 14.0247151,9.71177634 L13.8918615,12.1280499 Z" id="Combined-Shape"></path>
        </g>
    </g>
</svg>