<?xml version="1.0" encoding="UTF-8"?>
<svg width="32px" height="32px" viewBox="0 0 32 32" version="1.1" xmlns="http://www.w3.org/2000/svg" xmlns:xlink="http://www.w3.org/1999/xlink">
    <!-- Generator: Sketch 41 (35326) - http://www.bohemiancoding.com/sketch -->
    <title>fast-answer</title>
    <desc>Created with Sketch.</desc>
    <defs></defs>
    <g id="Page-1" stroke="none" stroke-width="1" fill="none" fill-rule="evenodd">
        <g id="fast-answer">
            <g id="Group" transform="translate(0.000000, 5.000000)">
                <path d="M10.08,15.19 L9.8,15.04 C8.56425049,14.2784261 7.50148787,13.2667578 6.68,12.07 C5.84338006,10.8880416 5.25799236,9.54709533 4.96,8.13 L4.92,7.82 L7.79,5.81 L4.92,1.71 L2.05,3.72 C1.21613608,4.33578985 0.840135298,5.39650784 1.1,6.4 C1.87160632,8.95040182 3.06476602,11.3536215 4.63,13.51 C6.1213921,15.7171125 7.97002524,17.660374 10.1,19.26 C10.9553374,19.852611 12.0864299,19.8605485 12.95,19.28 L15.82,17.27 L12.95,13.18 L10.08,15.19 Z" id="Shape"></path>
                <path d="M14.05,13.01 C13.8273316,12.6780029 13.4821006,12.4478489 13.09,12.37 C12.694037,12.3050985 12.2888373,12.4063985 11.97,12.65 L10.05,13.99 L9.76,13.8 C7.99712175,12.5182287 6.71256627,10.6846578 6.11,8.59 L6.03,8.26 L7.95,6.91 C8.28752004,6.69101277 8.52199999,6.34470392 8.6,5.95 C8.65885056,5.55117056 8.55825844,5.14520951 8.32,4.82 L6.02,1.55 C5.82764214,1.17191576 5.50413993,0.876853305 5.11,0.72 C4.68101547,0.745054802 4.27118177,0.906185999 3.94,1.18 L1.48,2.9 C0.274492268,3.75569661 -0.262110654,5.27740638 0.14,6.7 C0.95170937,9.34406898 2.19149082,11.8371445 3.81,14.08 C5.36598169,16.3685955 7.28444723,18.3883884 9.49,20.06 C10.6887741,20.9270621 12.3042516,20.9430966 13.52,20.1 L15.98,18.38 C16.3477514,18.1681007 16.6358183,17.8413908 16.8,17.45 C16.7813306,17.0244344 16.6232055,16.6168231 16.35,16.29 L14.05,13.01 Z M12.95,19.28 C12.0864299,19.8605485 10.9553374,19.852611 10.1,19.26 C7.97002524,17.660374 6.1213921,15.7171125 4.63,13.51 C3.06476602,11.3536215 1.87160632,8.95040182 1.1,6.4 C0.840135298,5.39650784 1.21613608,4.33578985 2.05,3.72 L4.92,1.71 L7.79,5.81 L4.92,7.82 L4.96,8.13 C5.25799236,9.54709533 5.84338006,10.8880416 6.68,12.07 C7.50148787,13.2667578 8.56425049,14.2784261 9.8,15.04 L10.08,15.19 L12.95,13.18 L15.82,17.27 L12.95,19.28 Z" id="Shape" fill="#4A4A4A"></path>
                <path d="M23.96,2.66 C23.5804739,2.3093555 23.0761375,2.12563295 22.56,2.15 C22.3050316,2.14755243 22.0514762,2.18812131 21.81,2.27 C21.7007811,2.31060101 21.5939441,2.3573422 21.49,2.41 L20.74,2.85 L20.74,0 L19.65,0 L19.65,8 L20.74,8 L20.74,4.8 C20.7210472,4.37382202 20.8559126,3.95502943 21.12,3.62 C21.3797094,3.31211034 21.767598,3.14217821 22.17,3.16 C22.4992669,3.14395358 22.8207886,3.26316948 23.06,3.49 C23.2971272,3.75512318 23.4162507,4.10527402 23.39,4.46 L23.39,8 L24.49,8 L24.49,4.11 C24.5251296,3.57363695 24.3327373,3.04728068 23.96,2.66 Z" id="Shape" fill="#4A4A4A"></path>
                <path d="M14,1.85 L14,3 L15.78,1.74 L15.78,2.7 C15.79,3.19 15.79,3.79 15.79,4.49 C15.79,5.2 15.79,5.97 15.78,6.79 L15.77,8 L16.88,8 L16.88,0.56 L15.77,0.58 L14,1.85 Z" id="Shape" fill="#4A4A4A"></path>
            </g>
        </g>
    </g>
</svg>