<svg xmlns="http://www.w3.org/2000/svg" viewBox="0 0 32 32"><path style="text-indent:0;text-align:start;line-height:normal;text-transform:none;block-progression:tb;-inkscape-font-specification:Sans" d="M2 5v16h28V5H2zm2 2h2v12H4V7zm4 0h16v12H8V7zm18 0h2v12h-2V7zM16 9c-2.197 0-4 1.803-4 4s1.803 4 4 4 4-1.803 4-4-1.803-4-4-4zm0 2c1.116 0 2 .884 2 2s-.884 2-2 2-2-.884-2-2 .884-2 2-2zM2 22v2h2c2.494.02 14.425.25 23.75 2.719l1.25.343V22h-2v2.531a63.256 63.256 0 0 0-2-.437V22h-2v1.719C13.269 21.992 3 22 3 22H2z"/></svg>