<svg width="20" height="20" viewBox="0 0 20 20" xmlns="http://www.w3.org/2000/svg"><title>flights</title><path d="M10.048 11.178c-.858.546-1.815 1.063-2.731 1.428-.285.948-.851 2.747-1.125 2.987-.47.413-.647.36-.72-.206-.072-.566-.376-2.397-.376-2.397s-1.682-.903-2.21-1.161c-.526-.259-.518-.438.045-.722.328-.165 2.277-.063 3.3.004.669-.705 1.5-1.394 2.327-1.984A422.463 422.463 0 0 0 4.643 5.85c-.604-.487.061-.59.061-.59.304-.052.95-.098 1.266-.007 1.963.565 5.01 1.532 5.727 1.76l.903-.608c3.657-2.467 4.578-1.92 4.753-1.682.174.24.39 1.26-3.266 3.727l-.902.61c-.023.726-.122 3.815-.242 5.785-.02.317-.285.887-.44 1.144 0 0-.328.566-.597-.147a395.689 395.689 0 0 0-1.858-4.664z" fill="#CCC" fill-rule="evenodd"/></svg>