<svg xmlns="http://www.w3.org/2000/svg" width="14" height="16" viewBox="0 0 14 16"><title>Shape</title><path d="M2.677 2.707l-.9-2.225-1.483.599L5.87 14.877c.232.575.883.852 1.458.62l5.34-2.158c.575-.233.851-.884.619-1.458L9.031 1.348a1.118 1.118 0 0 0-1.458-.62zm.6 1.483l4.45-1.798 1.798 4.45-4.45 1.799zm2.511 6.751c-.165-.408.118-.91.628-1.116.51-.206 1.062-.041 1.226.367.165.408-.117.91-.627 1.116-.51.206-1.062.04-1.227-.367zm2.967-1.199c-.165-.408.118-.91.628-1.116.51-.206 1.062-.041 1.226.367.165.408-.117.91-.627 1.116-.51.206-1.062.041-1.227-.367zm-.841 3.791c-.51.206-1.062.041-1.227-.367-.165-.408.118-.91.628-1.116.51-.206 1.062-.041 1.226.367.165.408-.117.91-.627 1.116zm2.967-1.198c-.51.206-1.062.04-1.227-.368-.165-.407.118-.91.628-1.116.51-.206 1.062-.04 1.226.367.165.408-.117.91-.627 1.117z" fill="#fff"/></svg>