<svg xmlns="http://www.w3.org/2000/svg" width="20" height="16" viewBox="0 0 20 16"><title>Shape</title><path d="M10.17 9.12c-1.04.66-2.2 1.29-3.32 1.73-.34 1.15-1.03 3.34-1.36 3.63-.57.5-.79.44-.88-.25-.09-.69-.46-2.91-.46-2.91s-2.04-1.1-2.68-1.41c-.64-.32-.63-.54.05-.88.4-.2 2.77-.08 4.01 0 .82-.85 1.83-1.69 2.83-2.41-1.15-.97-3.92-3.31-4.76-3.98-.73-.59.08-.72.08-.72.37-.06 1.15-.12 1.54 0 2.38.68 6.08 1.86 6.96 2.13.33-.22.69-.46 1.09-.74C17.72.32 18.84.98 19.05 1.27c.21.29.47 1.53-3.97 4.53-.4.27-.76.52-1.1.74-.02.88-.14 4.64-.29 7.03-.02.39-.35 1.08-.53 1.39 0 0-.4.69-.73-.18-.37-.98-1.71-4.3-2.26-5.66z" fill="#fff"/></svg>