<svg width="20" height="20" viewBox="0 0 20 20" xmlns="http://www.w3.org/2000/svg"><title>acomodation</title><path d="M15.596 6h-.672v10h.672c.74 0 1.344-.6 1.344-1.333V7.333C16.94 6.6 16.335 6 15.596 6zM3.5 7.333v7.334C3.5 15.4 4.104 16 4.844 16h.672V6h-.672C4.104 6 3.5 6.6 3.5 7.333zm9.072-2.729c-.458-.21-1.27-.604-2.365-.604-1.097 0-1.881.393-2.339.604V6h-1.68v10h8.064V6h-1.68V4.604zM11.564 6H8.876v-.89c.359-.154.724-.31 1.331-.31.606 0 .999.155 1.357.31V6z" fill="#CCC" fill-rule="evenodd"/></svg>