<svg xmlns="http://www.w3.org/2000/svg" width="110" height="21" viewBox="0 0 110 21"><title>Bookimed</title><path d="M74.07 20.14h-3.62v-7.62c0-.94-.16-1.64-.48-2.11-.32-.47-.82-.71-1.51-.71-.92 0-1.59.34-2.01 1.01-.42.66-.63 1.76-.63 3.29v6.14H62.2V7.1h2.76l.49 1.67h.2c.36-.6.87-1.06 1.54-1.4.68-.34 1.45-.51 2.32-.51 1.98 0 3.32.64 4.03 1.91h.32c.35-.6.88-1.07 1.57-1.41.69-.33 1.47-.5 2.34-.5 1.5 0 2.64.38 3.41 1.14.77.75 1.16 1.97 1.16 3.64v8.5h-3.63v-7.62c0-.94-.16-1.64-.48-2.11-.32-.47-.83-.71-1.51-.71-.89 0-1.55.31-1.99.94-.44.62-.66 1.6-.66 2.96zm-28.11-7.09l1.57-1.98 3.72-3.97h4.07l-5.26 5.66 5.59 7.38h-4.18l-3.82-5.28-1.55 1.22v4.06h-3.62V2h3.62v8.09l-.19 2.96zm52.41 5.54c-.88-1.19-1.33-2.84-1.33-4.95 0-2.13.45-3.8 1.36-4.99.9-1.19 2.15-1.79 3.74-1.79 1.67 0 2.94.64 3.82 1.91h.12c-.19-.97-.28-1.84-.28-2.6V2h3.63v18.14h-2.77l-.7-1.69h-.16c-.82 1.28-2.07 1.92-3.76 1.92-1.55 0-2.78-.6-3.67-1.78zM0 3.1h5.4c2.45 0 4.24.34 5.35 1.03 1.11.68 1.67 1.78 1.67 3.28 0 1.02-.25 1.85-.73 2.5-.49.66-1.14 1.05-1.94 1.18v.12c1.1.24 1.89.69 2.38 1.35.48.66.72 1.54.72 2.63 0 1.56-.57 2.77-1.71 3.64-1.14.87-2.69 1.31-4.65 1.31H0zm25.3 15.47c-1.14 1.2-2.72 1.8-4.75 1.8-1.28 0-2.4-.28-3.37-.82-.98-.55-1.72-1.34-2.24-2.36-.53-1.03-.79-2.23-.79-3.59 0-2.13.57-3.79 1.7-4.97 1.13-1.18 2.72-1.77 4.77-1.77 1.27 0 2.39.27 3.36.82.98.54 1.72 1.32 2.25 2.34.52 1.02.78 2.21.78 3.58 0 2.12-.57 3.78-1.71 4.97zm14.37 0c-1.14 1.2-2.72 1.8-4.76 1.8-1.27 0-2.39-.28-3.36-.82-.98-.55-1.72-1.34-2.25-2.36-.52-1.03-.78-2.23-.78-3.59 0-2.13.57-3.79 1.7-4.97 1.13-1.18 2.72-1.77 4.76-1.77 1.28 0 2.4.27 3.37.82.97.54 1.72 1.32 2.24 2.34.53 1.02.79 2.21.79 3.58 0 2.12-.57 3.78-1.71 4.97zm45.9.06c-1.2-1.16-1.81-2.8-1.81-4.92 0-2.18.56-3.87 1.67-5.06 1.11-1.19 2.65-1.79 4.61-1.79 1.87 0 3.33.52 4.37 1.57 1.05 1.05 1.57 2.5 1.57 4.35v1.73h-8.55c.04 1.01.34 1.79.91 2.36.57.57 1.37.85 2.4.85.8 0 1.55-.08 2.26-.24.71-.17 1.46-.43 2.23-.78v2.75c-.63.31-1.31.54-2.03.69-.72.15-1.59.23-2.63.23-2.13 0-3.8-.58-5-1.74zm-25.48 1.51h-3.62V7.1h3.62zm-27.23-3.62c.43.66 1.13.99 2.1.99.97 0 1.66-.33 2.08-.98.42-.66.64-1.64.64-2.93 0-1.29-.22-2.26-.64-2.91-.43-.64-1.13-.96-2.1-.96-.97 0-1.66.32-2.09.96-.43.64-.64 1.61-.64 2.91 0 1.29.22 2.26.65 2.92zm-14.37 0c.43.66 1.13.99 2.1.99.97 0 1.66-.33 2.08-.98.43-.66.64-1.64.64-2.93 0-1.29-.22-2.26-.64-2.91-.43-.64-1.13-.96-2.1-.96-.97 0-1.66.32-2.09.96-.43.64-.64 1.61-.64 2.91 0 1.29.22 2.26.65 2.92zM3.68 12.71v4.44h2.39c1.01 0 1.76-.19 2.24-.57.48-.38.73-.96.73-1.75 0-1.41-1.03-2.12-3.09-2.12zm0-2.87h2.13c1 0 1.72-.15 2.16-.45.45-.3.67-.8.67-1.5 0-.66-.24-1.13-.72-1.41-.49-.28-1.26-.42-2.31-.42H3.68zm84.58.27c-.44.47-.68 1.15-.75 2.03h5.08c-.02-.88-.25-1.56-.7-2.03-.45-.48-1.06-.72-1.83-.72s-1.37.24-1.8.72zm17.09 6.63c.43-.52.66-1.42.7-2.69v-.38c0-1.4-.22-2.4-.66-3.01-.43-.61-1.15-.91-2.14-.91-.8 0-1.43.34-1.88 1.01-.44.67-.67 1.65-.67 2.93 0 1.28.23 2.24.68 2.88.45.65 1.1.97 1.93.97.93 0 1.61-.27 2.04-.8zM59.02.43l-.35.38-.35-.38c-.52-.57-1.36-.57-1.88 0-.59.64-.59 1.68 0 2.32l2.23 2.45 2.23-2.45c.59-.64.59-1.68 0-2.32-.52-.57-1.36-.57-1.88 0z" fill="#fff"/></svg>