<svg width="32" height="32" viewBox="0 0 32 32" xmlns="http://www.w3.org/2000/svg"><title>icons/32x32/payment/visa</title><g fill="none" fill-rule="evenodd"><path fill="#0057A0" d="M11 19.68L12.516 11h2.426l-1.518 8.68zM22.278 11.365A6.405 6.405 0 0 0 20.104 11c-2.397 0-4.085 1.177-4.1 2.864-.013 1.247 1.206 1.943 2.126 2.358.944.426 1.262.697 1.257 1.077-.006.582-.754.847-1.451.847-.97 0-1.487-.131-2.283-.455l-.313-.138-.34 1.943c.566.242 1.614.452 2.702.463 2.55 0 4.204-1.164 4.223-2.965.01-.988-.637-1.74-2.036-2.359-.848-.401-1.367-.669-1.362-1.076 0-.36.44-.746 1.39-.746a4.572 4.572 0 0 1 1.815.332l.217.1.329-1.88M28.746 11h-1.874c-.58 0-1.015.155-1.27.72L22 19.674h2.547s.416-1.07.51-1.305l3.107.004c.072.304.295 1.3.295 1.3h2.25L28.746 11zm-2.99 5.594l.966-2.426c-.015.023.199-.503.321-.828l.164.748.562 2.506h-2.014zM8.987 11l-2.375 5.918-.253-1.202c-.442-1.387-1.82-2.889-3.359-3.641l2.171 7.59 2.566-.003L11.556 11h-2.57"/><path d="M4.942 11H1.03L1 11.18c3.043.719 5.056 2.455 5.892 4.541l-.85-3.988c-.148-.55-.573-.714-1.1-.733" fill="#FAA61A"/></g></svg>