<svg width="48" height="35" viewBox="0 0 48 35" xmlns="http://www.w3.org/2000/svg"><title>icons/48x48/reviews/quote.svg</title><path d="M28.272 18.369a47.665 47.665 0 0 1 2.01-6.454 19.66 19.66 0 0 1 3.456-5.771c1.466-1.697 3.351-3.103 5.655-4.22C41.696.807 44.565.165 48 0l-1.508 7.199c-3.35.413-5.717 1.592-7.1 3.537-1.382 1.944-2.408 4.447-3.078 7.509h9.424L42.22 35H24.754l3.518-16.631zm-24.754 0a47.665 47.665 0 0 1 2.01-6.454 19.66 19.66 0 0 1 3.456-5.771c1.466-1.697 3.351-3.103 5.655-4.22C16.942.807 19.812.165 23.246 0l-1.508 7.199c-3.35.413-5.717 1.592-7.1 3.537-1.381 1.944-2.408 4.447-3.078 7.509h9.424L17.466 35H0l3.518-16.631z" fill="#F2F2F2" fill-rule="evenodd"/></svg>