<svg width="16" height="16" viewBox="0 0 16 16" xmlns="http://www.w3.org/2000/svg"><title>icons/phone</title><path d="M8.278.645L3.383 2.623l-.9-2.226L1 .997l5.574 13.796c.23.571.886.85 1.457.62l5.342-2.158c.57-.231.85-.888.619-1.459L9.736 1.264a1.123 1.123 0 0 0-1.458-.62zm-.557 10.579c-.513.207-1.062.043-1.227-.367-.166-.41.115-.91.627-1.116.513-.208 1.061-.044 1.227.367.166.41-.115.909-.627 1.116zm1.526 1.109c.166.41-.115.91-.627 1.116-.513.207-1.062.043-1.227-.367-.166-.41.115-.91.627-1.116.513-.207 1.061-.043 1.227.367zM5.78 8.557l-1.798-4.45 4.45-1.799 1.799 4.45L5.78 8.558zm4.908 1.468c-.513.207-1.062.043-1.227-.367-.166-.41.115-.91.627-1.116.513-.207 1.061-.043 1.227.367.166.41-.115.91-.627 1.116zm1.526 1.11c.166.41-.115.908-.627 1.116-.513.207-1.062.043-1.227-.368-.166-.41.115-.909.627-1.116.513-.207 1.061-.043 1.227.367z" fill="#FF6F6F" fill-rule="evenodd"/></svg>