<?xml version="1.0" encoding="UTF-8"?>
<svg width="24px" height="24px" viewBox="0 0 24 24" version="1.1" xmlns="http://www.w3.org/2000/svg" xmlns:xlink="http://www.w3.org/1999/xlink">
    <!-- Generator: Sketch 41 (35326) - http://www.bohemiancoding.com/sketch -->
    <title>phone</title>
    <desc>Created with Sketch.</desc>
    <defs></defs>
    <g id="Page-1" stroke="none" stroke-width="1" fill="none" fill-rule="evenodd">
        <g id="phone">
            <g id="Group" transform="translate(0.000000, 2.000000)">
                <path d="M9.48705882,14.4666667 L9.22352941,14.3238095 C8.06047105,13.5985011 7.06022387,12.6350075 6.28705882,11.4952381 C5.49965183,10.3695634 4.9486987,9.09247174 4.66823529,7.74285714 L4.63058824,7.44761905 L7.33176471,5.53333333 L4.63058824,1.62857143 L1.92941176,3.54285714 C1.14459866,4.12932367 0.790715574,5.13953127 1.03529412,6.0952381 C1.76151183,8.5241922 2.88448566,10.8129728 4.35764706,12.8666667 C5.76131021,14.9686785 7.50120022,16.8194038 9.50588235,18.3428571 C10.3109058,18.9072486 11.3754634,18.9148081 12.1882353,18.3619048 L14.8894118,16.447619 L12.1882353,12.552381 L9.48705882,14.4666667 Z" id="Shape"></path>
                <path d="M13.2235294,12.3904762 C13.0139591,12.0742884 12.6890359,11.8550941 12.32,11.7809524 C11.9473289,11.7191415 11.5659645,11.8156176 11.2658824,12.047619 L9.45882353,13.3238095 L9.18588235,13.1428571 C7.52670283,11.9221226 6.31770943,10.1758645 5.75058824,8.18095238 L5.67529412,7.86666667 L7.48235294,6.58095238 C7.80001886,6.37239311 8.02070588,6.04257516 8.09411765,5.66666667 C8.14950641,5.28682911 8.05483148,4.90019953 7.83058824,4.59047619 L5.66588235,1.47619048 C5.48483966,1.11611024 5.18036699,0.835098386 4.80941176,0.685714286 C4.40566162,0.709576001 4.01993578,0.863034285 3.70823529,1.12380952 L1.39294118,2.76190476 C0.258345664,3.57685391 -0.246692381,5.02610132 0.131764706,6.38095238 C0.895726466,8.89911331 2.0625796,11.2734709 3.58588235,13.4095238 C5.05033571,15.5891386 6.85595033,17.5127509 8.93176471,19.1047619 C10.0600227,19.9305354 11.5804721,19.9458063 12.7247059,19.1428571 L15.04,17.5047619 C15.386119,17.3029531 15.6572407,16.9918008 15.8117647,16.6190476 C15.7941935,16.2137471 15.6453699,15.8255459 15.3882353,15.5142857 L13.2235294,12.3904762 Z M12.1882353,18.3619048 C11.3754634,18.9148081 10.3109058,18.9072486 9.50588235,18.3428571 C7.50120022,16.8194038 5.76131021,14.9686785 4.35764706,12.8666667 C2.88448566,10.8129728 1.76151183,8.5241922 1.03529412,6.0952381 C0.790715574,5.13953127 1.14459866,4.12932367 1.92941176,3.54285714 L4.63058824,1.62857143 L7.33176471,5.53333333 L4.63058824,7.44761905 L4.66823529,7.74285714 C4.9486987,9.09247174 5.49965183,10.3695634 6.28705882,11.4952381 C7.06022387,12.6350075 8.06047105,13.5985011 9.22352941,14.3238095 L9.48705882,14.4666667 L12.1882353,12.552381 L14.8894118,16.447619 L12.1882353,18.3619048 Z" id="Shape" fill="#4A4A4A"></path>
            </g>
        </g>
    </g>
</svg>